<mxfile host="88a50c5f-8c79-4fe5-9b9c-2ea396824349" modified="2020-07-18T00:13:10.459Z" agent="5.0 (Windows NT 10.0; Win64; x64) AppleWebKit/537.36 (KHTML, like Gecko) Code/1.47.1 Chrome/78.0.3904.130 Electron/7.3.2 Safari/537.36" etag="GPEq24bX-gmlsrFJByU6" version="13.1.3">
    <diagram id="6hGFLwfOUW9BJ-s0fimq" name="Page-1">
        <mxGraphModel dx="2893" dy="2016" grid="1" gridSize="10" guides="1" tooltips="1" connect="1" arrows="1" fold="1" page="1" pageScale="1" pageWidth="827" pageHeight="1169" math="0" shadow="0">
            <root>
                <mxCell id="0"/>
                <mxCell id="1" parent="0"/>
                <mxCell id="2" value="Encyclopedia" style="rounded=1;whiteSpace=wrap;html=1;" parent="1" vertex="1">
                    <mxGeometry x="-140" y="40" width="15870" height="60" as="geometry"/>
                </mxCell>
                <mxCell id="3" value="Homepage (SplashPage)&lt;br&gt;&lt;br&gt;&lt;br&gt;Avernus:&lt;br&gt;&lt;br&gt;(Background Img)&lt;br&gt;&lt;br&gt;Souls of the Damned" style="rounded=1;whiteSpace=wrap;html=1;" parent="1" vertex="1">
                    <mxGeometry x="-680" y="-540" width="680" height="390" as="geometry"/>
                </mxCell>
                <mxCell id="175" style="edgeStyle=orthogonalEdgeStyle;rounded=0;orthogonalLoop=1;jettySize=auto;html=1;exitX=0.25;exitY=1;exitDx=0;exitDy=0;entryX=0.5;entryY=0;entryDx=0;entryDy=0;" edge="1" parent="1" source="4" target="162">
                    <mxGeometry relative="1" as="geometry"/>
                </mxCell>
                <mxCell id="176" style="edgeStyle=orthogonalEdgeStyle;rounded=0;orthogonalLoop=1;jettySize=auto;html=1;exitX=0.75;exitY=1;exitDx=0;exitDy=0;entryX=0.5;entryY=0;entryDx=0;entryDy=0;" edge="1" parent="1" source="4" target="163">
                    <mxGeometry relative="1" as="geometry"/>
                </mxCell>
                <mxCell id="177" style="edgeStyle=orthogonalEdgeStyle;rounded=0;orthogonalLoop=1;jettySize=auto;html=1;exitX=1;exitY=1;exitDx=0;exitDy=0;entryX=0.5;entryY=0;entryDx=0;entryDy=0;" edge="1" parent="1" source="4" target="164">
                    <mxGeometry relative="1" as="geometry"/>
                </mxCell>
                <mxCell id="178" style="edgeStyle=orthogonalEdgeStyle;rounded=0;orthogonalLoop=1;jettySize=auto;html=1;exitX=1;exitY=0.75;exitDx=0;exitDy=0;" edge="1" parent="1" source="4" target="166">
                    <mxGeometry relative="1" as="geometry"/>
                </mxCell>
                <mxCell id="179" style="edgeStyle=orthogonalEdgeStyle;rounded=0;orthogonalLoop=1;jettySize=auto;html=1;exitX=1;exitY=0.5;exitDx=0;exitDy=0;" edge="1" parent="1" source="4" target="165">
                    <mxGeometry relative="1" as="geometry"/>
                </mxCell>
                <mxCell id="180" style="edgeStyle=orthogonalEdgeStyle;rounded=0;orthogonalLoop=1;jettySize=auto;html=1;exitX=1;exitY=0.25;exitDx=0;exitDy=0;" edge="1" parent="1" source="4" target="171">
                    <mxGeometry relative="1" as="geometry"/>
                </mxCell>
                <mxCell id="184" style="edgeStyle=orthogonalEdgeStyle;rounded=0;orthogonalLoop=1;jettySize=auto;html=1;exitX=0;exitY=1;exitDx=0;exitDy=0;entryX=0.5;entryY=0;entryDx=0;entryDy=0;" edge="1" parent="1" source="4" target="161">
                    <mxGeometry relative="1" as="geometry"/>
                </mxCell>
                <mxCell id="185" style="edgeStyle=orthogonalEdgeStyle;rounded=0;orthogonalLoop=1;jettySize=auto;html=1;exitX=0;exitY=0.75;exitDx=0;exitDy=0;" edge="1" parent="1" source="4" target="167">
                    <mxGeometry relative="1" as="geometry"/>
                </mxCell>
                <mxCell id="186" style="edgeStyle=orthogonalEdgeStyle;rounded=0;orthogonalLoop=1;jettySize=auto;html=1;exitX=0;exitY=0.5;exitDx=0;exitDy=0;entryX=0.5;entryY=0;entryDx=0;entryDy=0;" edge="1" parent="1" source="4" target="168">
                    <mxGeometry relative="1" as="geometry"/>
                </mxCell>
                <mxCell id="187" style="edgeStyle=orthogonalEdgeStyle;rounded=0;orthogonalLoop=1;jettySize=auto;html=1;exitX=0;exitY=0.25;exitDx=0;exitDy=0;" edge="1" parent="1" source="4" target="173">
                    <mxGeometry relative="1" as="geometry"/>
                </mxCell>
                <mxCell id="188" style="edgeStyle=orthogonalEdgeStyle;rounded=0;orthogonalLoop=1;jettySize=auto;html=1;exitX=0;exitY=0;exitDx=0;exitDy=0;entryX=0.5;entryY=0;entryDx=0;entryDy=0;" edge="1" parent="1" source="4" target="170">
                    <mxGeometry relative="1" as="geometry"/>
                </mxCell>
                <mxCell id="216" style="edgeStyle=orthogonalEdgeStyle;rounded=0;orthogonalLoop=1;jettySize=auto;html=1;exitX=1;exitY=0;exitDx=0;exitDy=0;" edge="1" parent="1" source="4" target="14">
                    <mxGeometry relative="1" as="geometry"/>
                </mxCell>
                <mxCell id="4" value="Sentients" style="rounded=1;whiteSpace=wrap;html=1;" parent="1" vertex="1">
                    <mxGeometry x="7320" y="265" width="120" height="60" as="geometry"/>
                </mxCell>
                <mxCell id="5" value="Bestiary" style="rounded=1;whiteSpace=wrap;html=1;" parent="1" vertex="1">
                    <mxGeometry x="14830" y="160" width="120" height="60" as="geometry"/>
                </mxCell>
                <mxCell id="42" style="edgeStyle=orthogonalEdgeStyle;rounded=0;orthogonalLoop=1;jettySize=auto;html=1;exitX=0.5;exitY=1;exitDx=0;exitDy=0;entryX=0.5;entryY=0;entryDx=0;entryDy=0;" edge="1" parent="1" source="6" target="31">
                    <mxGeometry relative="1" as="geometry"/>
                </mxCell>
                <mxCell id="82" style="edgeStyle=orthogonalEdgeStyle;rounded=0;orthogonalLoop=1;jettySize=auto;html=1;exitX=0;exitY=0.5;exitDx=0;exitDy=0;entryX=0.5;entryY=0;entryDx=0;entryDy=0;" edge="1" parent="1" source="6" target="32">
                    <mxGeometry relative="1" as="geometry"/>
                </mxCell>
                <mxCell id="83" style="edgeStyle=orthogonalEdgeStyle;rounded=0;orthogonalLoop=1;jettySize=auto;html=1;exitX=1;exitY=0.5;exitDx=0;exitDy=0;entryX=0.5;entryY=0;entryDx=0;entryDy=0;" edge="1" parent="1" source="6" target="38">
                    <mxGeometry relative="1" as="geometry"/>
                </mxCell>
                <mxCell id="6" value="Realms &amp;amp; Regions" style="rounded=1;whiteSpace=wrap;html=1;" parent="1" vertex="1">
                    <mxGeometry x="1511" y="390" width="120" height="60" as="geometry"/>
                </mxCell>
                <mxCell id="85" style="edgeStyle=orthogonalEdgeStyle;rounded=0;orthogonalLoop=1;jettySize=auto;html=1;exitX=0;exitY=0.5;exitDx=0;exitDy=0;entryX=0.5;entryY=0;entryDx=0;entryDy=0;" edge="1" parent="1" source="7" target="24">
                    <mxGeometry relative="1" as="geometry"/>
                </mxCell>
                <mxCell id="324" style="edgeStyle=orthogonalEdgeStyle;rounded=0;orthogonalLoop=1;jettySize=auto;html=1;exitX=1;exitY=0.5;exitDx=0;exitDy=0;entryX=0.5;entryY=0;entryDx=0;entryDy=0;" edge="1" parent="1" source="7" target="318">
                    <mxGeometry relative="1" as="geometry"/>
                </mxCell>
                <mxCell id="7" value="Storylines" style="rounded=1;whiteSpace=wrap;html=1;" parent="1" vertex="1">
                    <mxGeometry x="-417" y="250" width="120" height="60" as="geometry"/>
                </mxCell>
                <mxCell id="8" value="Home" style="rounded=1;whiteSpace=wrap;html=1;" parent="1" vertex="1">
                    <mxGeometry x="-680" y="-60" width="50" height="60" as="geometry"/>
                </mxCell>
                <mxCell id="9" value="Login / Signup" style="rounded=1;whiteSpace=wrap;html=1;" parent="1" vertex="1">
                    <mxGeometry x="-40" y="-60" width="100" height="60" as="geometry"/>
                </mxCell>
                <mxCell id="10" value="Forum" style="rounded=1;whiteSpace=wrap;html=1;" parent="1" vertex="1">
                    <mxGeometry x="-280" y="-60" width="120" height="60" as="geometry"/>
                </mxCell>
                <mxCell id="11" value="Only logged in users can vote on storyline progression, comment on forums &amp;amp; create forum posts" style="ellipse;whiteSpace=wrap;html=1;aspect=fixed;" vertex="1" parent="1">
                    <mxGeometry x="-827" y="90" width="130" height="130" as="geometry"/>
                </mxCell>
                <mxCell id="12" value="Notes" style="rounded=1;whiteSpace=wrap;html=1;" vertex="1" parent="1">
                    <mxGeometry x="-822" y="10" width="120" height="60" as="geometry"/>
                </mxCell>
                <mxCell id="13" value="Tools" style="rounded=1;whiteSpace=wrap;html=1;" vertex="1" parent="1">
                    <mxGeometry x="14460" y="110" width="120" height="60" as="geometry"/>
                </mxCell>
                <mxCell id="14" value="Pactworthy&lt;br&gt;(You make deals with particular creatures)&lt;br&gt;(Ritualism)&lt;br&gt;(Conjured Creatures)" style="rounded=1;whiteSpace=wrap;html=1;" vertex="1" parent="1">
                    <mxGeometry x="8200" y="405" width="150" height="80" as="geometry"/>
                </mxCell>
                <mxCell id="190" style="edgeStyle=orthogonalEdgeStyle;rounded=0;orthogonalLoop=1;jettySize=auto;html=1;exitX=0.5;exitY=1;exitDx=0;exitDy=0;entryX=0.5;entryY=0;entryDx=0;entryDy=0;" edge="1" parent="1" source="15" target="189">
                    <mxGeometry relative="1" as="geometry"/>
                </mxCell>
                <mxCell id="15" value="Vocations" style="rounded=1;whiteSpace=wrap;html=1;" vertex="1" parent="1">
                    <mxGeometry x="10600" y="100" width="120" height="60" as="geometry"/>
                </mxCell>
                <mxCell id="16" value="Flora" style="rounded=1;whiteSpace=wrap;html=1;" vertex="1" parent="1">
                    <mxGeometry x="15020" y="240" width="120" height="60" as="geometry"/>
                </mxCell>
                <mxCell id="17" value="Fauna" style="rounded=1;whiteSpace=wrap;html=1;" vertex="1" parent="1">
                    <mxGeometry x="14900" y="240" width="120" height="60" as="geometry"/>
                </mxCell>
                <mxCell id="18" value="Horrors" style="rounded=1;whiteSpace=wrap;html=1;" vertex="1" parent="1">
                    <mxGeometry x="14700" y="230" width="120" height="60" as="geometry"/>
                </mxCell>
                <mxCell id="19" value="Bog of Bogodola" style="rounded=1;whiteSpace=wrap;html=1;" vertex="1" parent="1">
                    <mxGeometry x="3050" y="692.5" width="120" height="60" as="geometry"/>
                </mxCell>
                <mxCell id="20" value="TheWindswept Wastes" style="rounded=1;whiteSpace=wrap;html=1;" vertex="1" parent="1">
                    <mxGeometry x="2790" y="692.5" width="120" height="60" as="geometry"/>
                </mxCell>
                <mxCell id="61" style="edgeStyle=orthogonalEdgeStyle;rounded=0;orthogonalLoop=1;jettySize=auto;html=1;exitX=1;exitY=0.5;exitDx=0;exitDy=0;entryX=0.5;entryY=0;entryDx=0;entryDy=0;" edge="1" parent="1" source="24" target="56">
                    <mxGeometry relative="1" as="geometry"/>
                </mxCell>
                <mxCell id="280" style="edgeStyle=orthogonalEdgeStyle;rounded=0;orthogonalLoop=1;jettySize=auto;html=1;exitX=0;exitY=0.5;exitDx=0;exitDy=0;" edge="1" parent="1" source="24" target="57">
                    <mxGeometry relative="1" as="geometry"/>
                </mxCell>
                <mxCell id="24" value="The Road &lt;br&gt;To &lt;br&gt;Carcosa&lt;br&gt;(Prologue)" style="rounded=1;whiteSpace=wrap;html=1;" vertex="1" parent="1">
                    <mxGeometry x="-680" y="345" width="120" height="60" as="geometry"/>
                </mxCell>
                <mxCell id="159" style="edgeStyle=orthogonalEdgeStyle;rounded=0;orthogonalLoop=1;jettySize=auto;html=1;exitX=0.5;exitY=1;exitDx=0;exitDy=0;entryX=0.5;entryY=0;entryDx=0;entryDy=0;" edge="1" parent="1" source="31" target="156">
                    <mxGeometry relative="1" as="geometry"/>
                </mxCell>
                <mxCell id="31" value="That Which Lies Inbetween" style="rounded=1;whiteSpace=wrap;html=1;" vertex="1" parent="1">
                    <mxGeometry x="1511" y="480" width="120" height="60" as="geometry"/>
                </mxCell>
                <mxCell id="158" style="edgeStyle=orthogonalEdgeStyle;rounded=0;orthogonalLoop=1;jettySize=auto;html=1;exitX=0.5;exitY=1;exitDx=0;exitDy=0;entryX=0.5;entryY=0;entryDx=0;entryDy=0;" edge="1" parent="1" source="32" target="157">
                    <mxGeometry relative="1" as="geometry"/>
                </mxCell>
                <mxCell id="32" value="The Old World" style="rounded=1;whiteSpace=wrap;html=1;" vertex="1" parent="1">
                    <mxGeometry x="1200" y="485" width="120" height="60" as="geometry"/>
                </mxCell>
                <mxCell id="71" style="edgeStyle=orthogonalEdgeStyle;rounded=0;orthogonalLoop=1;jettySize=auto;html=1;exitX=0.5;exitY=1;exitDx=0;exitDy=0;entryX=0.5;entryY=0;entryDx=0;entryDy=0;" edge="1" parent="1" source="38" target="53">
                    <mxGeometry relative="1" as="geometry"/>
                </mxCell>
                <mxCell id="325" style="edgeStyle=orthogonalEdgeStyle;rounded=0;orthogonalLoop=1;jettySize=auto;html=1;exitX=0;exitY=0.5;exitDx=0;exitDy=0;" edge="1" parent="1" source="38" target="51">
                    <mxGeometry relative="1" as="geometry"/>
                </mxCell>
                <mxCell id="326" style="edgeStyle=orthogonalEdgeStyle;rounded=0;orthogonalLoop=1;jettySize=auto;html=1;exitX=1;exitY=0.5;exitDx=0;exitDy=0;entryX=0.5;entryY=0;entryDx=0;entryDy=0;" edge="1" parent="1" source="38" target="52">
                    <mxGeometry relative="1" as="geometry"/>
                </mxCell>
                <mxCell id="38" value="Avernus &lt;br&gt;(The New World)" style="rounded=1;whiteSpace=wrap;html=1;" vertex="1" parent="1">
                    <mxGeometry x="2320" y="485" width="120" height="60" as="geometry"/>
                </mxCell>
                <mxCell id="45" value="NavBar" style="rounded=1;whiteSpace=wrap;html=1;" vertex="1" parent="1">
                    <mxGeometry x="-680" y="-600" width="680" height="60" as="geometry"/>
                </mxCell>
                <mxCell id="49" value="The Machina&lt;br&gt;aka&lt;br&gt;(Magick)" style="rounded=1;whiteSpace=wrap;html=1;" vertex="1" parent="1">
                    <mxGeometry x="15300" y="100" width="120" height="60" as="geometry"/>
                </mxCell>
                <mxCell id="91" style="edgeStyle=orthogonalEdgeStyle;rounded=0;orthogonalLoop=1;jettySize=auto;html=1;exitX=0;exitY=0.5;exitDx=0;exitDy=0;entryX=0.5;entryY=0;entryDx=0;entryDy=0;" edge="1" parent="1" source="51" target="90">
                    <mxGeometry relative="1" as="geometry"/>
                </mxCell>
                <mxCell id="92" style="edgeStyle=orthogonalEdgeStyle;rounded=0;orthogonalLoop=1;jettySize=auto;html=1;exitX=0;exitY=1;exitDx=0;exitDy=0;entryX=0.5;entryY=0;entryDx=0;entryDy=0;" edge="1" parent="1" source="51" target="89">
                    <mxGeometry relative="1" as="geometry"/>
                </mxCell>
                <mxCell id="93" style="edgeStyle=orthogonalEdgeStyle;rounded=0;orthogonalLoop=1;jettySize=auto;html=1;exitX=1;exitY=1;exitDx=0;exitDy=0;entryX=0.5;entryY=0;entryDx=0;entryDy=0;" edge="1" parent="1" source="51" target="87">
                    <mxGeometry relative="1" as="geometry"/>
                </mxCell>
                <mxCell id="94" style="edgeStyle=orthogonalEdgeStyle;rounded=0;orthogonalLoop=1;jettySize=auto;html=1;exitX=1;exitY=0.5;exitDx=0;exitDy=0;entryX=0.5;entryY=0;entryDx=0;entryDy=0;" edge="1" parent="1" source="51" target="88">
                    <mxGeometry relative="1" as="geometry"/>
                </mxCell>
                <mxCell id="51" value="Western Galllery" style="rounded=1;whiteSpace=wrap;html=1;" vertex="1" parent="1">
                    <mxGeometry x="1910" y="790" width="120" height="60" as="geometry"/>
                </mxCell>
                <mxCell id="78" style="edgeStyle=orthogonalEdgeStyle;rounded=0;orthogonalLoop=1;jettySize=auto;html=1;exitX=1;exitY=0.5;exitDx=0;exitDy=0;entryX=0.5;entryY=0;entryDx=0;entryDy=0;" edge="1" parent="1" source="52" target="76">
                    <mxGeometry relative="1" as="geometry"/>
                </mxCell>
                <mxCell id="79" style="edgeStyle=orthogonalEdgeStyle;rounded=0;orthogonalLoop=1;jettySize=auto;html=1;exitX=0;exitY=0.5;exitDx=0;exitDy=0;entryX=0.5;entryY=0;entryDx=0;entryDy=0;" edge="1" parent="1" source="52" target="77">
                    <mxGeometry relative="1" as="geometry"/>
                </mxCell>
                <mxCell id="52" value="Eastern Gallery" style="rounded=1;whiteSpace=wrap;html=1;" vertex="1" parent="1">
                    <mxGeometry x="2920" y="537.5" width="120" height="60" as="geometry"/>
                </mxCell>
                <mxCell id="53" value="Wildlands" style="rounded=1;whiteSpace=wrap;html=1;" vertex="1" parent="1">
                    <mxGeometry x="2320" y="570" width="120" height="60" as="geometry"/>
                </mxCell>
                <mxCell id="283" style="edgeStyle=orthogonalEdgeStyle;rounded=0;orthogonalLoop=1;jettySize=auto;html=1;exitX=0;exitY=0.5;exitDx=0;exitDy=0;entryX=0.5;entryY=0;entryDx=0;entryDy=0;" edge="1" parent="1" source="56" target="281">
                    <mxGeometry relative="1" as="geometry"/>
                </mxCell>
                <mxCell id="56" value="Choice 2 -&amp;nbsp;&lt;br&gt;Bojang" style="rounded=1;whiteSpace=wrap;html=1;" vertex="1" parent="1">
                    <mxGeometry x="-560" y="480" width="120" height="60" as="geometry"/>
                </mxCell>
                <mxCell id="282" style="edgeStyle=orthogonalEdgeStyle;rounded=0;orthogonalLoop=1;jettySize=auto;html=1;exitX=1;exitY=0.5;exitDx=0;exitDy=0;entryX=0.5;entryY=0;entryDx=0;entryDy=0;" edge="1" parent="1" source="57" target="281">
                    <mxGeometry relative="1" as="geometry"/>
                </mxCell>
                <mxCell id="57" value="Choice 1 -&lt;br&gt;Shizzle" style="rounded=1;whiteSpace=wrap;html=1;" vertex="1" parent="1">
                    <mxGeometry x="-800" y="480" width="120" height="60" as="geometry"/>
                </mxCell>
                <mxCell id="59" style="edgeStyle=orthogonalEdgeStyle;rounded=0;orthogonalLoop=1;jettySize=auto;html=1;exitX=0.5;exitY=1;exitDx=0;exitDy=0;entryX=0.5;entryY=0;entryDx=0;entryDy=0;" edge="1" parent="1" source="58" target="7">
                    <mxGeometry relative="1" as="geometry"/>
                </mxCell>
                <mxCell id="58" value="Storylines" style="rounded=1;whiteSpace=wrap;html=1;" vertex="1" parent="1">
                    <mxGeometry x="-417" y="-60" width="120" height="60" as="geometry"/>
                </mxCell>
                <mxCell id="65" style="edgeStyle=orthogonalEdgeStyle;rounded=0;orthogonalLoop=1;jettySize=auto;html=1;exitX=0.5;exitY=1;exitDx=0;exitDy=0;entryX=0.5;entryY=0;entryDx=0;entryDy=0;" edge="1" parent="1" source="64" target="6">
                    <mxGeometry relative="1" as="geometry"/>
                </mxCell>
                <mxCell id="64" value="Realms &amp;amp; Regions" style="rounded=1;whiteSpace=wrap;html=1;" vertex="1" parent="1">
                    <mxGeometry x="1511" y="100" width="120" height="60" as="geometry"/>
                </mxCell>
                <mxCell id="81" style="edgeStyle=orthogonalEdgeStyle;rounded=0;orthogonalLoop=1;jettySize=auto;html=1;exitX=0.5;exitY=1;exitDx=0;exitDy=0;entryX=0.5;entryY=0;entryDx=0;entryDy=0;" edge="1" parent="1" source="76" target="19">
                    <mxGeometry relative="1" as="geometry"/>
                </mxCell>
                <mxCell id="76" value="SouthWest" style="rounded=1;whiteSpace=wrap;html=1;strokeColor=#F0E9E9;fillColor=#2A2A2A;" vertex="1" parent="1">
                    <mxGeometry x="3050" y="607.5" width="120" height="60" as="geometry"/>
                </mxCell>
                <mxCell id="80" style="edgeStyle=orthogonalEdgeStyle;rounded=0;orthogonalLoop=1;jettySize=auto;html=1;exitX=0.5;exitY=1;exitDx=0;exitDy=0;entryX=0.5;entryY=0;entryDx=0;entryDy=0;" edge="1" parent="1" source="77" target="20">
                    <mxGeometry relative="1" as="geometry"/>
                </mxCell>
                <mxCell id="77" value="NorthWest" style="rounded=1;whiteSpace=wrap;html=1;strokeColor=#F0E9E9;fillColor=#2A2A2A;" vertex="1" parent="1">
                    <mxGeometry x="2790" y="607.5" width="120" height="60" as="geometry"/>
                </mxCell>
                <mxCell id="126" style="edgeStyle=orthogonalEdgeStyle;rounded=0;orthogonalLoop=1;jettySize=auto;html=1;exitX=0.5;exitY=1;exitDx=0;exitDy=0;entryX=0.5;entryY=0;entryDx=0;entryDy=0;" edge="1" parent="1" source="87" target="115">
                    <mxGeometry relative="1" as="geometry"/>
                </mxCell>
                <mxCell id="145" style="edgeStyle=orthogonalEdgeStyle;rounded=0;orthogonalLoop=1;jettySize=auto;html=1;exitX=0;exitY=1;exitDx=0;exitDy=0;entryX=0.5;entryY=0;entryDx=0;entryDy=0;" edge="1" parent="1" source="87" target="116">
                    <mxGeometry relative="1" as="geometry"/>
                </mxCell>
                <mxCell id="146" style="edgeStyle=orthogonalEdgeStyle;rounded=0;orthogonalLoop=1;jettySize=auto;html=1;exitX=0;exitY=0.75;exitDx=0;exitDy=0;entryX=0.5;entryY=0;entryDx=0;entryDy=0;" edge="1" parent="1" source="87" target="117">
                    <mxGeometry relative="1" as="geometry"/>
                </mxCell>
                <mxCell id="147" style="edgeStyle=orthogonalEdgeStyle;rounded=0;orthogonalLoop=1;jettySize=auto;html=1;exitX=0;exitY=0.5;exitDx=0;exitDy=0;" edge="1" parent="1" source="87" target="118">
                    <mxGeometry relative="1" as="geometry"/>
                </mxCell>
                <mxCell id="148" style="edgeStyle=orthogonalEdgeStyle;rounded=0;orthogonalLoop=1;jettySize=auto;html=1;exitX=0;exitY=0.25;exitDx=0;exitDy=0;" edge="1" parent="1" source="87" target="119">
                    <mxGeometry relative="1" as="geometry"/>
                </mxCell>
                <mxCell id="149" style="edgeStyle=orthogonalEdgeStyle;rounded=0;orthogonalLoop=1;jettySize=auto;html=1;exitX=0;exitY=0;exitDx=0;exitDy=0;" edge="1" parent="1" source="87" target="120">
                    <mxGeometry relative="1" as="geometry"/>
                </mxCell>
                <mxCell id="150" style="edgeStyle=orthogonalEdgeStyle;rounded=0;orthogonalLoop=1;jettySize=auto;html=1;exitX=1;exitY=1;exitDx=0;exitDy=0;" edge="1" parent="1" source="87" target="121">
                    <mxGeometry relative="1" as="geometry"/>
                </mxCell>
                <mxCell id="151" style="edgeStyle=orthogonalEdgeStyle;rounded=0;orthogonalLoop=1;jettySize=auto;html=1;exitX=1;exitY=0.75;exitDx=0;exitDy=0;" edge="1" parent="1" source="87" target="122">
                    <mxGeometry relative="1" as="geometry"/>
                </mxCell>
                <mxCell id="152" style="edgeStyle=orthogonalEdgeStyle;rounded=0;orthogonalLoop=1;jettySize=auto;html=1;exitX=1;exitY=0.5;exitDx=0;exitDy=0;entryX=0.5;entryY=0;entryDx=0;entryDy=0;" edge="1" parent="1" source="87" target="123">
                    <mxGeometry relative="1" as="geometry"/>
                </mxCell>
                <mxCell id="153" style="edgeStyle=orthogonalEdgeStyle;rounded=0;orthogonalLoop=1;jettySize=auto;html=1;exitX=1;exitY=0.25;exitDx=0;exitDy=0;" edge="1" parent="1" source="87" target="125">
                    <mxGeometry relative="1" as="geometry"/>
                </mxCell>
                <mxCell id="154" style="edgeStyle=orthogonalEdgeStyle;rounded=0;orthogonalLoop=1;jettySize=auto;html=1;exitX=1;exitY=0;exitDx=0;exitDy=0;" edge="1" parent="1" source="87" target="124">
                    <mxGeometry relative="1" as="geometry"/>
                </mxCell>
                <mxCell id="87" value="Kyr &lt;br&gt;Commonwealth&amp;nbsp;&lt;br&gt;Provinces" style="rounded=1;whiteSpace=wrap;html=1;strokeColor=#F0E9E9;fillColor=#2A2A2A;" vertex="1" parent="1">
                    <mxGeometry x="2822" y="940" width="120" height="60" as="geometry"/>
                </mxCell>
                <mxCell id="112" style="edgeStyle=orthogonalEdgeStyle;rounded=0;orthogonalLoop=1;jettySize=auto;html=1;exitX=0.5;exitY=1;exitDx=0;exitDy=0;entryX=0.5;entryY=0;entryDx=0;entryDy=0;" edge="1" parent="1" source="88" target="104">
                    <mxGeometry relative="1" as="geometry"/>
                </mxCell>
                <mxCell id="143" style="edgeStyle=orthogonalEdgeStyle;rounded=0;orthogonalLoop=1;jettySize=auto;html=1;exitX=0;exitY=0.5;exitDx=0;exitDy=0;entryX=0.5;entryY=0;entryDx=0;entryDy=0;" edge="1" parent="1" source="88" target="103">
                    <mxGeometry relative="1" as="geometry"/>
                </mxCell>
                <mxCell id="144" style="edgeStyle=orthogonalEdgeStyle;rounded=0;orthogonalLoop=1;jettySize=auto;html=1;exitX=1;exitY=0.5;exitDx=0;exitDy=0;entryX=0.5;entryY=0;entryDx=0;entryDy=0;" edge="1" parent="1" source="88" target="102">
                    <mxGeometry relative="1" as="geometry"/>
                </mxCell>
                <mxCell id="88" value="Messerhorn" style="rounded=1;whiteSpace=wrap;html=1;strokeColor=#F0E9E9;fillColor=#2A2A2A;" vertex="1" parent="1">
                    <mxGeometry x="4030" y="940" width="120" height="60" as="geometry"/>
                </mxCell>
                <mxCell id="109" style="edgeStyle=orthogonalEdgeStyle;rounded=0;orthogonalLoop=1;jettySize=auto;html=1;exitX=0.5;exitY=1;exitDx=0;exitDy=0;entryX=0.5;entryY=0;entryDx=0;entryDy=0;" edge="1" parent="1" source="89" target="100">
                    <mxGeometry relative="1" as="geometry"/>
                </mxCell>
                <mxCell id="141" style="edgeStyle=orthogonalEdgeStyle;rounded=0;orthogonalLoop=1;jettySize=auto;html=1;exitX=0;exitY=0.5;exitDx=0;exitDy=0;entryX=0.5;entryY=0;entryDx=0;entryDy=0;" edge="1" parent="1" source="89" target="99">
                    <mxGeometry relative="1" as="geometry"/>
                </mxCell>
                <mxCell id="142" style="edgeStyle=orthogonalEdgeStyle;rounded=0;orthogonalLoop=1;jettySize=auto;html=1;exitX=1;exitY=0.5;exitDx=0;exitDy=0;" edge="1" parent="1" source="89" target="101">
                    <mxGeometry relative="1" as="geometry"/>
                </mxCell>
                <mxCell id="89" value="Reiksweald" style="rounded=1;whiteSpace=wrap;html=1;strokeColor=#F0E9E9;fillColor=#2A2A2A;" vertex="1" parent="1">
                    <mxGeometry x="1630" y="940" width="120" height="60" as="geometry"/>
                </mxCell>
                <mxCell id="137" style="edgeStyle=orthogonalEdgeStyle;rounded=0;orthogonalLoop=1;jettySize=auto;html=1;exitX=0;exitY=0.5;exitDx=0;exitDy=0;entryX=0.5;entryY=0;entryDx=0;entryDy=0;" edge="1" parent="1" source="90" target="95">
                    <mxGeometry relative="1" as="geometry"/>
                </mxCell>
                <mxCell id="138" style="edgeStyle=orthogonalEdgeStyle;rounded=0;orthogonalLoop=1;jettySize=auto;html=1;exitX=0;exitY=1;exitDx=0;exitDy=0;entryX=0.5;entryY=0;entryDx=0;entryDy=0;" edge="1" parent="1" source="90" target="96">
                    <mxGeometry relative="1" as="geometry"/>
                </mxCell>
                <mxCell id="139" style="edgeStyle=orthogonalEdgeStyle;rounded=0;orthogonalLoop=1;jettySize=auto;html=1;exitX=1;exitY=1;exitDx=0;exitDy=0;entryX=0.5;entryY=0;entryDx=0;entryDy=0;" edge="1" parent="1" source="90" target="97">
                    <mxGeometry relative="1" as="geometry"/>
                </mxCell>
                <mxCell id="140" style="edgeStyle=orthogonalEdgeStyle;rounded=0;orthogonalLoop=1;jettySize=auto;html=1;exitX=1;exitY=0.5;exitDx=0;exitDy=0;entryX=0.5;entryY=0;entryDx=0;entryDy=0;" edge="1" parent="1" source="90" target="98">
                    <mxGeometry relative="1" as="geometry"/>
                </mxCell>
                <mxCell id="90" value="East Reach*Revanwall" style="rounded=1;whiteSpace=wrap;html=1;strokeColor=#F0E9E9;fillColor=#2A2A2A;" vertex="1" parent="1">
                    <mxGeometry x="1010" y="940" width="120" height="60" as="geometry"/>
                </mxCell>
                <mxCell id="95" value="Carcosa" style="rounded=1;whiteSpace=wrap;html=1;strokeColor=#F0E9E9;fillColor=#2A2A2A;" vertex="1" parent="1">
                    <mxGeometry x="770" y="1040" width="120" height="60" as="geometry"/>
                </mxCell>
                <mxCell id="96" value="Archipelago of Eyre" style="rounded=1;whiteSpace=wrap;html=1;strokeColor=#F0E9E9;fillColor=#2A2A2A;" vertex="1" parent="1">
                    <mxGeometry x="910" y="1040" width="120" height="60" as="geometry"/>
                </mxCell>
                <mxCell id="97" value="Sabian Sea" style="rounded=1;whiteSpace=wrap;html=1;strokeColor=#F0E9E9;fillColor=#2A2A2A;" vertex="1" parent="1">
                    <mxGeometry x="1105" y="1040" width="120" height="60" as="geometry"/>
                </mxCell>
                <mxCell id="98" value="The March" style="rounded=1;whiteSpace=wrap;html=1;strokeColor=#F0E9E9;fillColor=#2A2A2A;" vertex="1" parent="1">
                    <mxGeometry x="1270" y="1040" width="120" height="60" as="geometry"/>
                </mxCell>
                <mxCell id="99" value="New Hessen" style="rounded=1;whiteSpace=wrap;html=1;strokeColor=#F0E9E9;fillColor=#2A2A2A;" vertex="1" parent="1">
                    <mxGeometry x="1470" y="1035" width="120" height="60" as="geometry"/>
                </mxCell>
                <mxCell id="100" value="The Pendulum" style="rounded=1;whiteSpace=wrap;html=1;strokeColor=#F0E9E9;fillColor=#2A2A2A;" vertex="1" parent="1">
                    <mxGeometry x="1630" y="1030" width="120" height="60" as="geometry"/>
                </mxCell>
                <mxCell id="101" value="Hochburg" style="rounded=1;whiteSpace=wrap;html=1;strokeColor=#F0E9E9;fillColor=#2A2A2A;" vertex="1" parent="1">
                    <mxGeometry x="1790" y="1035" width="120" height="60" as="geometry"/>
                </mxCell>
                <mxCell id="102" value="The Comb" style="rounded=1;whiteSpace=wrap;html=1;strokeColor=#F0E9E9;fillColor=#2A2A2A;" vertex="1" parent="1">
                    <mxGeometry x="4190" y="1020" width="120" height="60" as="geometry"/>
                </mxCell>
                <mxCell id="103" value="Venwich" style="rounded=1;whiteSpace=wrap;html=1;strokeColor=#F0E9E9;fillColor=#2A2A2A;" vertex="1" parent="1">
                    <mxGeometry x="3870" y="1020" width="120" height="60" as="geometry"/>
                </mxCell>
                <mxCell id="104" value="Falkkirk" style="rounded=1;whiteSpace=wrap;html=1;strokeColor=#F0E9E9;fillColor=#2A2A2A;" vertex="1" parent="1">
                    <mxGeometry x="4030" y="1020" width="120" height="60" as="geometry"/>
                </mxCell>
                <mxCell id="115" value="Kyne" style="rounded=1;whiteSpace=wrap;html=1;strokeColor=#F0E9E9;fillColor=#2A2A2A;" vertex="1" parent="1">
                    <mxGeometry x="2822" y="1085" width="120" height="60" as="geometry"/>
                </mxCell>
                <mxCell id="116" value="New Dunwich" style="rounded=1;whiteSpace=wrap;html=1;strokeColor=#F0E9E9;fillColor=#2A2A2A;" vertex="1" parent="1">
                    <mxGeometry x="2660" y="1085" width="120" height="60" as="geometry"/>
                </mxCell>
                <mxCell id="117" value="Miskaton" style="rounded=1;whiteSpace=wrap;html=1;strokeColor=#F0E9E9;fillColor=#2A2A2A;" vertex="1" parent="1">
                    <mxGeometry x="2500" y="1085" width="120" height="60" as="geometry"/>
                </mxCell>
                <mxCell id="118" value="Haddam" style="rounded=1;whiteSpace=wrap;html=1;strokeColor=#F0E9E9;fillColor=#2A2A2A;" vertex="1" parent="1">
                    <mxGeometry x="2340" y="1085" width="120" height="60" as="geometry"/>
                </mxCell>
                <mxCell id="119" value="Rock Hollow" style="rounded=1;whiteSpace=wrap;html=1;strokeColor=#F0E9E9;fillColor=#2A2A2A;" vertex="1" parent="1">
                    <mxGeometry x="2180" y="1085" width="120" height="60" as="geometry"/>
                </mxCell>
                <mxCell id="120" value="Wilbraham" style="rounded=1;whiteSpace=wrap;html=1;strokeColor=#F0E9E9;fillColor=#2A2A2A;" vertex="1" parent="1">
                    <mxGeometry x="2020" y="1085" width="120" height="60" as="geometry"/>
                </mxCell>
                <mxCell id="121" value="Solstead" style="rounded=1;whiteSpace=wrap;html=1;strokeColor=#F0E9E9;fillColor=#2A2A2A;" vertex="1" parent="1">
                    <mxGeometry x="2980" y="1085" width="120" height="60" as="geometry"/>
                </mxCell>
                <mxCell id="122" value="Ard Carraig" style="rounded=1;whiteSpace=wrap;html=1;strokeColor=#F0E9E9;fillColor=#2A2A2A;" vertex="1" parent="1">
                    <mxGeometry x="3140" y="1085" width="120" height="60" as="geometry"/>
                </mxCell>
                <mxCell id="123" value="Castle Dunwich" style="rounded=1;whiteSpace=wrap;html=1;strokeColor=#F0E9E9;fillColor=#2A2A2A;" vertex="1" parent="1">
                    <mxGeometry x="3295.5" y="1085" width="120" height="60" as="geometry"/>
                </mxCell>
                <mxCell id="124" value="The Walking Way" style="rounded=1;whiteSpace=wrap;html=1;strokeColor=#F0E9E9;fillColor=#2A2A2A;" vertex="1" parent="1">
                    <mxGeometry x="3620" y="1085" width="120" height="60" as="geometry"/>
                </mxCell>
                <mxCell id="125" value="The River Tanith" style="rounded=1;whiteSpace=wrap;html=1;strokeColor=#F0E9E9;fillColor=#2A2A2A;" vertex="1" parent="1">
                    <mxGeometry x="3460" y="1085" width="120" height="60" as="geometry"/>
                </mxCell>
                <mxCell id="155" value="Angouleme" style="rounded=1;whiteSpace=wrap;html=1;strokeColor=#F0E9E9;fillColor=#2A2A2A;" vertex="1" parent="1">
                    <mxGeometry x="1510" y="650" width="120" height="60" as="geometry"/>
                </mxCell>
                <mxCell id="160" style="edgeStyle=orthogonalEdgeStyle;rounded=0;orthogonalLoop=1;jettySize=auto;html=1;exitX=0.5;exitY=1;exitDx=0;exitDy=0;entryX=0.5;entryY=0;entryDx=0;entryDy=0;" edge="1" parent="1" source="156" target="155">
                    <mxGeometry relative="1" as="geometry"/>
                </mxCell>
                <mxCell id="156" value="The Astral Sea,&lt;br&gt;Oltremere" style="rounded=1;whiteSpace=wrap;html=1;strokeColor=#F0E9E9;fillColor=#2A2A2A;" vertex="1" parent="1">
                    <mxGeometry x="1511" y="570" width="120" height="60" as="geometry"/>
                </mxCell>
                <mxCell id="157" value="Old World -&amp;nbsp;&lt;br&gt;Jhera" style="rounded=1;whiteSpace=wrap;html=1;strokeColor=#F0E9E9;fillColor=#2A2A2A;" vertex="1" parent="1">
                    <mxGeometry x="1200" y="570" width="120" height="60" as="geometry"/>
                </mxCell>
                <mxCell id="161" value="Illithid" style="rounded=1;whiteSpace=wrap;html=1;strokeColor=#F0E9E9;fillColor=#2A2A2A;" vertex="1" parent="1">
                    <mxGeometry x="7080" y="405" width="120" height="60" as="geometry"/>
                </mxCell>
                <mxCell id="174" style="edgeStyle=orthogonalEdgeStyle;rounded=0;orthogonalLoop=1;jettySize=auto;html=1;exitX=0.5;exitY=1;exitDx=0;exitDy=0;entryX=0.5;entryY=0;entryDx=0;entryDy=0;" edge="1" parent="1" source="162" target="172">
                    <mxGeometry relative="1" as="geometry"/>
                </mxCell>
                <mxCell id="162" value="Mystic" style="rounded=1;whiteSpace=wrap;html=1;strokeColor=#F0E9E9;fillColor=#2A2A2A;" vertex="1" parent="1">
                    <mxGeometry x="7240" y="425" width="120" height="60" as="geometry"/>
                </mxCell>
                <mxCell id="163" value="Pallidmask" style="rounded=1;whiteSpace=wrap;html=1;strokeColor=#F0E9E9;fillColor=#2A2A2A;" vertex="1" parent="1">
                    <mxGeometry x="7403" y="425" width="120" height="60" as="geometry"/>
                </mxCell>
                <mxCell id="164" value="Svirneblin" style="rounded=1;whiteSpace=wrap;html=1;strokeColor=#F0E9E9;fillColor=#2A2A2A;" vertex="1" parent="1">
                    <mxGeometry x="7560" y="405" width="120" height="60" as="geometry"/>
                </mxCell>
                <mxCell id="165" value="UrSkeks" style="rounded=1;whiteSpace=wrap;html=1;strokeColor=#F0E9E9;fillColor=#2A2A2A;" vertex="1" parent="1">
                    <mxGeometry x="7880" y="405" width="120" height="60" as="geometry"/>
                </mxCell>
                <mxCell id="166" value="Tianhua" style="rounded=1;whiteSpace=wrap;html=1;strokeColor=#F0E9E9;fillColor=#2A2A2A;" vertex="1" parent="1">
                    <mxGeometry x="7720" y="405" width="120" height="60" as="geometry"/>
                </mxCell>
                <mxCell id="167" value="Gobrins" style="rounded=1;whiteSpace=wrap;html=1;strokeColor=#F0E9E9;fillColor=#2A2A2A;" vertex="1" parent="1">
                    <mxGeometry x="6920" y="405" width="120" height="60" as="geometry"/>
                </mxCell>
                <mxCell id="168" value="Deep Gnome" style="rounded=1;whiteSpace=wrap;html=1;strokeColor=#F0E9E9;fillColor=#2A2A2A;" vertex="1" parent="1">
                    <mxGeometry x="6760" y="405" width="120" height="60" as="geometry"/>
                </mxCell>
                <mxCell id="170" value="Ally&amp;nbsp;&lt;br&gt;Ex. Agreable&lt;br&gt;Mythical Creature" style="rounded=1;whiteSpace=wrap;html=1;strokeColor=#F0E9E9;fillColor=#2A2A2A;" vertex="1" parent="1">
                    <mxGeometry x="6440" y="405" width="120" height="60" as="geometry"/>
                </mxCell>
                <mxCell id="171" value="Yangxian" style="rounded=1;whiteSpace=wrap;html=1;strokeColor=#F0E9E9;fillColor=#2A2A2A;" vertex="1" parent="1">
                    <mxGeometry x="8040" y="405" width="120" height="60" as="geometry"/>
                </mxCell>
                <mxCell id="172" value="Urtt the Weaver" style="rounded=1;whiteSpace=wrap;html=1;strokeColor=#F0E9E9;fillColor=#2A2A2A;" vertex="1" parent="1">
                    <mxGeometry x="7240" y="525" width="120" height="60" as="geometry"/>
                </mxCell>
                <mxCell id="173" value="CrayKnight" style="rounded=1;whiteSpace=wrap;html=1;strokeColor=#F0E9E9;fillColor=#2A2A2A;" vertex="1" parent="1">
                    <mxGeometry x="6600" y="405" width="120" height="60" as="geometry"/>
                </mxCell>
                <mxCell id="183" style="edgeStyle=orthogonalEdgeStyle;rounded=0;orthogonalLoop=1;jettySize=auto;html=1;exitX=0.5;exitY=1;exitDx=0;exitDy=0;" edge="1" parent="1" source="181" target="4">
                    <mxGeometry relative="1" as="geometry"/>
                </mxCell>
                <mxCell id="181" value="Sentients" style="rounded=1;whiteSpace=wrap;html=1;strokeColor=#F0E9E9;fillColor=#2A2A2A;" vertex="1" parent="1">
                    <mxGeometry x="7320" y="100" width="120" height="60" as="geometry"/>
                </mxCell>
                <mxCell id="198" style="edgeStyle=orthogonalEdgeStyle;rounded=0;orthogonalLoop=1;jettySize=auto;html=1;exitX=0.25;exitY=1;exitDx=0;exitDy=0;entryX=0.5;entryY=0;entryDx=0;entryDy=0;" edge="1" parent="1" source="189" target="195">
                    <mxGeometry relative="1" as="geometry"/>
                </mxCell>
                <mxCell id="199" style="edgeStyle=orthogonalEdgeStyle;rounded=0;orthogonalLoop=1;jettySize=auto;html=1;exitX=0.75;exitY=1;exitDx=0;exitDy=0;entryX=0.5;entryY=0;entryDx=0;entryDy=0;" edge="1" parent="1" source="189" target="194">
                    <mxGeometry relative="1" as="geometry"/>
                </mxCell>
                <mxCell id="200" style="edgeStyle=orthogonalEdgeStyle;rounded=0;orthogonalLoop=1;jettySize=auto;html=1;exitX=1;exitY=1;exitDx=0;exitDy=0;" edge="1" parent="1" source="189" target="193">
                    <mxGeometry relative="1" as="geometry"/>
                </mxCell>
                <mxCell id="201" style="edgeStyle=orthogonalEdgeStyle;rounded=0;orthogonalLoop=1;jettySize=auto;html=1;exitX=0;exitY=1;exitDx=0;exitDy=0;entryX=0.5;entryY=0;entryDx=0;entryDy=0;" edge="1" parent="1" source="189" target="196">
                    <mxGeometry relative="1" as="geometry"/>
                </mxCell>
                <mxCell id="202" style="edgeStyle=orthogonalEdgeStyle;rounded=0;orthogonalLoop=1;jettySize=auto;html=1;exitX=0;exitY=0.75;exitDx=0;exitDy=0;" edge="1" parent="1" source="189" target="192">
                    <mxGeometry relative="1" as="geometry"/>
                </mxCell>
                <mxCell id="189" value="Vocations" style="rounded=1;whiteSpace=wrap;html=1;strokeColor=#F0E9E9;fillColor=#2A2A2A;" vertex="1" parent="1">
                    <mxGeometry x="10600" y="240" width="120" height="60" as="geometry"/>
                </mxCell>
                <mxCell id="191" value="Alchemical &lt;br&gt;Hunter" style="rounded=1;whiteSpace=wrap;html=1;strokeColor=#F0E9E9;fillColor=#2A2A2A;" vertex="1" parent="1">
                    <mxGeometry x="11605" y="655" width="120" height="60" as="geometry"/>
                </mxCell>
                <mxCell id="192" value="Common Folk&lt;br&gt;Mastery" style="rounded=1;whiteSpace=wrap;html=1;strokeColor=#F0E9E9;fillColor=#2A2A2A;" vertex="1" parent="1">
                    <mxGeometry x="9000" y="400" width="120" height="60" as="geometry"/>
                </mxCell>
                <mxCell id="264" style="edgeStyle=orthogonalEdgeStyle;rounded=0;orthogonalLoop=1;jettySize=auto;html=1;exitX=0.5;exitY=1;exitDx=0;exitDy=0;entryX=0.5;entryY=0;entryDx=0;entryDy=0;" edge="1" parent="1" source="193" target="207">
                    <mxGeometry relative="1" as="geometry"/>
                </mxCell>
                <mxCell id="267" style="edgeStyle=orthogonalEdgeStyle;rounded=0;orthogonalLoop=1;jettySize=auto;html=1;exitX=0.75;exitY=1;exitDx=0;exitDy=0;entryX=0.5;entryY=0;entryDx=0;entryDy=0;" edge="1" parent="1" source="193" target="219">
                    <mxGeometry relative="1" as="geometry"/>
                </mxCell>
                <mxCell id="270" style="edgeStyle=orthogonalEdgeStyle;rounded=0;orthogonalLoop=1;jettySize=auto;html=1;exitX=1;exitY=1;exitDx=0;exitDy=0;" edge="1" parent="1" source="193" target="224">
                    <mxGeometry relative="1" as="geometry"/>
                </mxCell>
                <mxCell id="271" style="edgeStyle=orthogonalEdgeStyle;rounded=0;orthogonalLoop=1;jettySize=auto;html=1;exitX=0.25;exitY=1;exitDx=0;exitDy=0;entryX=0.5;entryY=0;entryDx=0;entryDy=0;" edge="1" parent="1" source="193" target="246">
                    <mxGeometry relative="1" as="geometry"/>
                </mxCell>
                <mxCell id="272" style="edgeStyle=orthogonalEdgeStyle;rounded=0;orthogonalLoop=1;jettySize=auto;html=1;exitX=0;exitY=1;exitDx=0;exitDy=0;" edge="1" parent="1" source="193">
                    <mxGeometry relative="1" as="geometry">
                        <mxPoint x="12290" y="580" as="targetPoint"/>
                    </mxGeometry>
                </mxCell>
                <mxCell id="273" style="edgeStyle=orthogonalEdgeStyle;rounded=0;orthogonalLoop=1;jettySize=auto;html=1;exitX=0;exitY=0.75;exitDx=0;exitDy=0;entryX=0.5;entryY=0;entryDx=0;entryDy=0;" edge="1" parent="1" source="193" target="226">
                    <mxGeometry relative="1" as="geometry"/>
                </mxCell>
                <mxCell id="193" value="Magicks&lt;br&gt;Mastery" style="rounded=1;whiteSpace=wrap;html=1;strokeColor=#F0E9E9;fillColor=#2A2A2A;" vertex="1" parent="1">
                    <mxGeometry x="12510" y="480" width="120" height="60" as="geometry"/>
                </mxCell>
                <mxCell id="258" style="edgeStyle=orthogonalEdgeStyle;rounded=0;orthogonalLoop=1;jettySize=auto;html=1;exitX=0.25;exitY=1;exitDx=0;exitDy=0;entryX=0.5;entryY=0;entryDx=0;entryDy=0;" edge="1" parent="1" source="194" target="203">
                    <mxGeometry relative="1" as="geometry"/>
                </mxCell>
                <mxCell id="259" style="edgeStyle=orthogonalEdgeStyle;rounded=0;orthogonalLoop=1;jettySize=auto;html=1;exitX=0.75;exitY=1;exitDx=0;exitDy=0;" edge="1" parent="1" source="194" target="191">
                    <mxGeometry relative="1" as="geometry"/>
                </mxCell>
                <mxCell id="260" style="edgeStyle=orthogonalEdgeStyle;rounded=0;orthogonalLoop=1;jettySize=auto;html=1;exitX=1;exitY=0.5;exitDx=0;exitDy=0;entryX=0.5;entryY=0;entryDx=0;entryDy=0;" edge="1" parent="1" source="194" target="205">
                    <mxGeometry relative="1" as="geometry"/>
                </mxCell>
                <mxCell id="261" style="edgeStyle=orthogonalEdgeStyle;rounded=0;orthogonalLoop=1;jettySize=auto;html=1;exitX=0;exitY=0.5;exitDx=0;exitDy=0;" edge="1" parent="1" source="194" target="204">
                    <mxGeometry relative="1" as="geometry"/>
                </mxCell>
                <mxCell id="194" value="Alchemical&amp;nbsp;&lt;br&gt;Mastery" style="rounded=1;whiteSpace=wrap;html=1;strokeColor=#F0E9E9;fillColor=#2A2A2A;" vertex="1" parent="1">
                    <mxGeometry x="11520" y="540" width="120" height="60" as="geometry"/>
                </mxCell>
                <mxCell id="255" style="edgeStyle=orthogonalEdgeStyle;rounded=0;orthogonalLoop=1;jettySize=auto;html=1;exitX=0.5;exitY=1;exitDx=0;exitDy=0;" edge="1" parent="1" source="195" target="225">
                    <mxGeometry relative="1" as="geometry"/>
                </mxCell>
                <mxCell id="256" style="edgeStyle=orthogonalEdgeStyle;rounded=0;orthogonalLoop=1;jettySize=auto;html=1;exitX=0;exitY=0.5;exitDx=0;exitDy=0;entryX=0.5;entryY=0;entryDx=0;entryDy=0;" edge="1" parent="1" source="195" target="235">
                    <mxGeometry relative="1" as="geometry"/>
                </mxCell>
                <mxCell id="257" style="edgeStyle=orthogonalEdgeStyle;rounded=0;orthogonalLoop=1;jettySize=auto;html=1;exitX=1;exitY=0.5;exitDx=0;exitDy=0;entryX=0.5;entryY=0;entryDx=0;entryDy=0;" edge="1" parent="1" source="195" target="242">
                    <mxGeometry relative="1" as="geometry"/>
                </mxCell>
                <mxCell id="195" value="Physician&lt;br&gt;Mastery" style="rounded=1;whiteSpace=wrap;html=1;strokeColor=#F0E9E9;fillColor=#2A2A2A;" vertex="1" parent="1">
                    <mxGeometry x="10901" y="590" width="120" height="60" as="geometry"/>
                </mxCell>
                <mxCell id="196" value="Combat&lt;br&gt;Mastery" style="rounded=1;whiteSpace=wrap;html=1;strokeColor=#F0E9E9;fillColor=#2A2A2A;" vertex="1" parent="1">
                    <mxGeometry x="10000" y="390" width="120" height="60" as="geometry"/>
                </mxCell>
                <mxCell id="203" value="Alchemik" style="rounded=1;whiteSpace=wrap;html=1;strokeColor=#F0E9E9;fillColor=#2A2A2A;" vertex="1" parent="1">
                    <mxGeometry x="11410" y="660" width="120" height="60" as="geometry"/>
                </mxCell>
                <mxCell id="204" value="Alchemist" style="rounded=1;whiteSpace=wrap;html=1;strokeColor=#F0E9E9;fillColor=#2A2A2A;" vertex="1" parent="1">
                    <mxGeometry x="11260" y="660" width="120" height="60" as="geometry"/>
                </mxCell>
                <mxCell id="205" value="Apothecary" style="rounded=1;whiteSpace=wrap;html=1;strokeColor=#F0E9E9;fillColor=#2A2A2A;" vertex="1" parent="1">
                    <mxGeometry x="11770" y="660" width="120" height="60" as="geometry"/>
                </mxCell>
                <mxCell id="206" value="Archmage of Waterheaven" style="rounded=1;whiteSpace=wrap;html=1;strokeColor=#F0E9E9;fillColor=#2A2A2A;" vertex="1" parent="1">
                    <mxGeometry x="12510" y="700" width="120" height="60" as="geometry"/>
                </mxCell>
                <mxCell id="265" style="edgeStyle=orthogonalEdgeStyle;rounded=0;orthogonalLoop=1;jettySize=auto;html=1;exitX=0.5;exitY=1;exitDx=0;exitDy=0;entryX=0.5;entryY=0;entryDx=0;entryDy=0;" edge="1" parent="1" source="207" target="206">
                    <mxGeometry relative="1" as="geometry"/>
                </mxCell>
                <mxCell id="207" value="Archwiz" style="rounded=1;whiteSpace=wrap;html=1;strokeColor=#F0E9E9;fillColor=#2A2A2A;" vertex="1" parent="1">
                    <mxGeometry x="12510" y="615" width="120" height="60" as="geometry"/>
                </mxCell>
                <mxCell id="208" value="Beastslayer" style="rounded=1;whiteSpace=wrap;html=1;strokeColor=#F0E9E9;fillColor=#2A2A2A;" vertex="1" parent="1">
                    <mxGeometry x="9840" y="480" width="120" height="60" as="geometry"/>
                </mxCell>
                <mxCell id="209" value="Blacksmith" style="rounded=1;whiteSpace=wrap;html=1;strokeColor=#F0E9E9;fillColor=#2A2A2A;" vertex="1" parent="1">
                    <mxGeometry x="9160" y="480" width="120" height="60" as="geometry"/>
                </mxCell>
                <mxCell id="210" value="Buccaneer / Pirate" style="rounded=1;whiteSpace=wrap;html=1;strokeColor=#F0E9E9;fillColor=#2A2A2A;" vertex="1" parent="1">
                    <mxGeometry x="10000" y="480" width="120" height="60" as="geometry"/>
                </mxCell>
                <mxCell id="211" value="Miner&lt;br&gt;Salt &amp;amp; Coal &amp;amp; Metal" style="rounded=1;whiteSpace=wrap;html=1;strokeColor=#F0E9E9;fillColor=#2A2A2A;" vertex="1" parent="1">
                    <mxGeometry x="9320" y="480" width="120" height="60" as="geometry"/>
                </mxCell>
                <mxCell id="213" value="Sellsword" style="rounded=1;whiteSpace=wrap;html=1;strokeColor=#F0E9E9;fillColor=#2A2A2A;" vertex="1" parent="1">
                    <mxGeometry x="10000" y="560" width="120" height="60" as="geometry"/>
                </mxCell>
                <mxCell id="214" value="Earth-Works" style="rounded=1;whiteSpace=wrap;html=1;strokeColor=#F0E9E9;fillColor=#2A2A2A;" vertex="1" parent="1">
                    <mxGeometry x="8840" y="480" width="120" height="60" as="geometry"/>
                </mxCell>
                <mxCell id="215" value="Militia&lt;br&gt;Militia Guard&lt;br&gt;Free company militia" style="rounded=1;whiteSpace=wrap;html=1;strokeColor=#F0E9E9;fillColor=#2A2A2A;" vertex="1" parent="1">
                    <mxGeometry x="10160" y="480" width="120" height="60" as="geometry"/>
                </mxCell>
                <mxCell id="217" value="Frontiersman" style="rounded=1;whiteSpace=wrap;html=1;strokeColor=#F0E9E9;fillColor=#2A2A2A;" vertex="1" parent="1">
                    <mxGeometry x="10160" y="560" width="120" height="60" as="geometry"/>
                </mxCell>
                <mxCell id="218" value="Gallowglass" style="rounded=1;whiteSpace=wrap;html=1;strokeColor=#F0E9E9;fillColor=#2A2A2A;" vertex="1" parent="1">
                    <mxGeometry x="9840" y="560" width="120" height="60" as="geometry"/>
                </mxCell>
                <mxCell id="219" value="Grey Wizard" style="rounded=1;whiteSpace=wrap;html=1;strokeColor=#F0E9E9;fillColor=#2A2A2A;" vertex="1" parent="1">
                    <mxGeometry x="12660" y="615" width="120" height="60" as="geometry"/>
                </mxCell>
                <mxCell id="220" value="Gunsmith" style="rounded=1;whiteSpace=wrap;html=1;strokeColor=#F0E9E9;fillColor=#2A2A2A;" vertex="1" parent="1">
                    <mxGeometry x="9000" y="480" width="120" height="60" as="geometry"/>
                </mxCell>
                <mxCell id="221" value="Halbardier" style="rounded=1;whiteSpace=wrap;html=1;strokeColor=#F0E9E9;fillColor=#2A2A2A;" vertex="1" parent="1">
                    <mxGeometry x="9840" y="640" width="120" height="60" as="geometry"/>
                </mxCell>
                <mxCell id="222" value="Handgunner" style="rounded=1;whiteSpace=wrap;html=1;strokeColor=#F0E9E9;fillColor=#2A2A2A;" vertex="1" parent="1">
                    <mxGeometry x="10000" y="640" width="120" height="60" as="geometry"/>
                </mxCell>
                <mxCell id="223" value="Farmer" style="rounded=1;whiteSpace=wrap;html=1;strokeColor=#F0E9E9;fillColor=#2A2A2A;" vertex="1" parent="1">
                    <mxGeometry x="8680" y="640" width="120" height="60" as="geometry"/>
                </mxCell>
                <mxCell id="224" value="Hedge Wizard" style="rounded=1;whiteSpace=wrap;html=1;strokeColor=#F0E9E9;fillColor=#2A2A2A;" vertex="1" parent="1">
                    <mxGeometry x="12815" y="590" width="120" height="60" as="geometry"/>
                </mxCell>
                <mxCell id="225" value="Herbalist" style="rounded=1;whiteSpace=wrap;html=1;strokeColor=#F0E9E9;fillColor=#2A2A2A;" vertex="1" parent="1">
                    <mxGeometry x="10901" y="670" width="120" height="60" as="geometry"/>
                </mxCell>
                <mxCell id="226" value="Hermit" style="rounded=1;whiteSpace=wrap;html=1;strokeColor=#F0E9E9;fillColor=#2A2A2A;" vertex="1" parent="1">
                    <mxGeometry x="12070" y="585" width="120" height="60" as="geometry"/>
                </mxCell>
                <mxCell id="227" value="Highwayman" style="rounded=1;whiteSpace=wrap;html=1;strokeColor=#F0E9E9;fillColor=#2A2A2A;" vertex="1" parent="1">
                    <mxGeometry x="10160" y="640" width="120" height="60" as="geometry"/>
                </mxCell>
                <mxCell id="228" value="Hunter" style="rounded=1;whiteSpace=wrap;html=1;strokeColor=#F0E9E9;fillColor=#2A2A2A;" vertex="1" parent="1">
                    <mxGeometry x="8680" y="555" width="120" height="60" as="geometry"/>
                </mxCell>
                <mxCell id="229" value="Inquisitor" style="rounded=1;whiteSpace=wrap;html=1;strokeColor=#F0E9E9;fillColor=#2A2A2A;" vertex="1" parent="1">
                    <mxGeometry x="9680" y="640" width="120" height="60" as="geometry"/>
                </mxCell>
                <mxCell id="230" value="Inspector" style="rounded=1;whiteSpace=wrap;html=1;strokeColor=#F0E9E9;fillColor=#2A2A2A;" vertex="1" parent="1">
                    <mxGeometry x="9000" y="560" width="120" height="60" as="geometry"/>
                </mxCell>
                <mxCell id="231" value="Judge" style="rounded=1;whiteSpace=wrap;html=1;strokeColor=#F0E9E9;fillColor=#2A2A2A;" vertex="1" parent="1">
                    <mxGeometry x="9000" y="640" width="120" height="60" as="geometry"/>
                </mxCell>
                <mxCell id="232" value="Long Hunter" style="rounded=1;whiteSpace=wrap;html=1;strokeColor=#F0E9E9;fillColor=#2A2A2A;" vertex="1" parent="1">
                    <mxGeometry x="8840" y="640" width="120" height="60" as="geometry"/>
                </mxCell>
                <mxCell id="233" value="Trapper" style="rounded=1;whiteSpace=wrap;html=1;strokeColor=#F0E9E9;fillColor=#2A2A2A;" vertex="1" parent="1">
                    <mxGeometry x="8680" y="480" width="120" height="60" as="geometry"/>
                </mxCell>
                <mxCell id="235" value="Maester" style="rounded=1;whiteSpace=wrap;html=1;strokeColor=#F0E9E9;fillColor=#2A2A2A;" vertex="1" parent="1">
                    <mxGeometry x="10751" y="670" width="120" height="60" as="geometry"/>
                </mxCell>
                <mxCell id="237" value="Minuteman" style="rounded=1;whiteSpace=wrap;html=1;strokeColor=#F0E9E9;fillColor=#2A2A2A;" vertex="1" parent="1">
                    <mxGeometry x="9160" y="560" width="120" height="60" as="geometry"/>
                </mxCell>
                <mxCell id="238" value="Mob" style="rounded=1;whiteSpace=wrap;html=1;strokeColor=#F0E9E9;fillColor=#2A2A2A;" vertex="1" parent="1">
                    <mxGeometry x="8840" y="560" width="120" height="60" as="geometry"/>
                </mxCell>
                <mxCell id="239" value="Night Watchman" style="rounded=1;whiteSpace=wrap;html=1;strokeColor=#F0E9E9;fillColor=#2A2A2A;" vertex="1" parent="1">
                    <mxGeometry x="9320" y="640" width="120" height="60" as="geometry"/>
                </mxCell>
                <mxCell id="240" value="Outrider" style="rounded=1;whiteSpace=wrap;html=1;strokeColor=#F0E9E9;fillColor=#2A2A2A;" vertex="1" parent="1">
                    <mxGeometry x="9680" y="480" width="120" height="60" as="geometry"/>
                </mxCell>
                <mxCell id="241" value="Pikeman" style="rounded=1;whiteSpace=wrap;html=1;strokeColor=#F0E9E9;fillColor=#2A2A2A;" vertex="1" parent="1">
                    <mxGeometry x="10320" y="640" width="120" height="60" as="geometry"/>
                </mxCell>
                <mxCell id="242" value="Plague Doctor" style="rounded=1;whiteSpace=wrap;html=1;strokeColor=#F0E9E9;fillColor=#2A2A2A;" vertex="1" parent="1">
                    <mxGeometry x="11061" y="670" width="120" height="60" as="geometry"/>
                </mxCell>
                <mxCell id="243" value="Ranger (Strider)" style="rounded=1;whiteSpace=wrap;html=1;strokeColor=#F0E9E9;fillColor=#2A2A2A;" vertex="1" parent="1">
                    <mxGeometry x="10000" y="720" width="120" height="60" as="geometry"/>
                </mxCell>
                <mxCell id="244" value="Scout" style="rounded=1;whiteSpace=wrap;html=1;strokeColor=#F0E9E9;fillColor=#2A2A2A;" vertex="1" parent="1">
                    <mxGeometry x="9840" y="720" width="120" height="60" as="geometry"/>
                </mxCell>
                <mxCell id="245" value="Settler" style="rounded=1;whiteSpace=wrap;html=1;strokeColor=#F0E9E9;fillColor=#2A2A2A;" vertex="1" parent="1">
                    <mxGeometry x="9320" y="560" width="120" height="60" as="geometry"/>
                </mxCell>
                <mxCell id="246" value="Sorceress" style="rounded=1;whiteSpace=wrap;html=1;strokeColor=#F0E9E9;fillColor=#2A2A2A;" vertex="1" parent="1">
                    <mxGeometry x="12370" y="615" width="120" height="60" as="geometry"/>
                </mxCell>
                <mxCell id="247" value="Steward" style="rounded=1;whiteSpace=wrap;html=1;strokeColor=#F0E9E9;fillColor=#2A2A2A;" vertex="1" parent="1">
                    <mxGeometry x="9160" y="640" width="120" height="60" as="geometry"/>
                </mxCell>
                <mxCell id="248" value="Musketeers" style="rounded=1;whiteSpace=wrap;html=1;strokeColor=#F0E9E9;fillColor=#2A2A2A;" vertex="1" parent="1">
                    <mxGeometry x="10320" y="560" width="120" height="60" as="geometry"/>
                </mxCell>
                <mxCell id="249" value="Uhlan" style="rounded=1;whiteSpace=wrap;html=1;strokeColor=#F0E9E9;fillColor=#2A2A2A;" vertex="1" parent="1">
                    <mxGeometry x="9680" y="560" width="120" height="60" as="geometry"/>
                </mxCell>
                <mxCell id="250" value="WarHammer Mage" style="rounded=1;whiteSpace=wrap;html=1;strokeColor=#F0E9E9;fillColor=#2A2A2A;" vertex="1" parent="1">
                    <mxGeometry x="12230" y="585" width="120" height="60" as="geometry"/>
                </mxCell>
                <mxCell id="251" value="Witch Hunter" style="rounded=1;whiteSpace=wrap;html=1;strokeColor=#F0E9E9;fillColor=#2A2A2A;" vertex="1" parent="1">
                    <mxGeometry x="10320" y="480" width="120" height="60" as="geometry"/>
                </mxCell>
                <mxCell id="252" value="Yeoman" style="rounded=1;whiteSpace=wrap;html=1;strokeColor=#F0E9E9;fillColor=#2A2A2A;" vertex="1" parent="1">
                    <mxGeometry x="10160" y="720" width="120" height="60" as="geometry"/>
                </mxCell>
                <mxCell id="275" value="NavBar (Routes)" style="rounded=1;whiteSpace=wrap;html=1;" vertex="1" parent="1">
                    <mxGeometry x="-680" y="-120" width="16390" height="60" as="geometry"/>
                </mxCell>
                <mxCell id="278" style="edgeStyle=orthogonalEdgeStyle;rounded=0;orthogonalLoop=1;jettySize=auto;html=1;exitX=0.5;exitY=1;exitDx=0;exitDy=0;entryX=0;entryY=0.5;entryDx=0;entryDy=0;" edge="1" parent="1" source="276" target="2">
                    <mxGeometry relative="1" as="geometry"/>
                </mxCell>
                <mxCell id="276" value="Encyclopedia" style="rounded=1;whiteSpace=wrap;html=1;strokeColor=#F0E9E9;fillColor=#2A2A2A;" vertex="1" parent="1">
                    <mxGeometry x="-160" y="-60" width="120" height="60" as="geometry"/>
                </mxCell>
                <mxCell id="281" value="Chapter 1" style="rounded=1;whiteSpace=wrap;html=1;strokeColor=#F0E9E9;fillColor=#2A2A2A;" vertex="1" parent="1">
                    <mxGeometry x="-680" y="570" width="120" height="60" as="geometry"/>
                </mxCell>
                <mxCell id="316" style="edgeStyle=orthogonalEdgeStyle;rounded=0;orthogonalLoop=1;jettySize=auto;html=1;exitX=1;exitY=0.5;exitDx=0;exitDy=0;entryX=0.5;entryY=0;entryDx=0;entryDy=0;" edge="1" parent="1" source="318" target="320">
                    <mxGeometry relative="1" as="geometry"/>
                </mxCell>
                <mxCell id="317" style="edgeStyle=orthogonalEdgeStyle;rounded=0;orthogonalLoop=1;jettySize=auto;html=1;exitX=0;exitY=0.5;exitDx=0;exitDy=0;" edge="1" parent="1" source="318" target="322">
                    <mxGeometry relative="1" as="geometry"/>
                </mxCell>
                <mxCell id="318" value="Story 2" style="rounded=1;whiteSpace=wrap;html=1;" vertex="1" parent="1">
                    <mxGeometry x="-140" y="345" width="120" height="60" as="geometry"/>
                </mxCell>
                <mxCell id="319" style="edgeStyle=orthogonalEdgeStyle;rounded=0;orthogonalLoop=1;jettySize=auto;html=1;exitX=0;exitY=0.5;exitDx=0;exitDy=0;entryX=0.5;entryY=0;entryDx=0;entryDy=0;" edge="1" parent="1" source="320" target="323">
                    <mxGeometry relative="1" as="geometry"/>
                </mxCell>
                <mxCell id="320" value="Choice 2 -&amp;nbsp;&lt;br&gt;Bojang" style="rounded=1;whiteSpace=wrap;html=1;" vertex="1" parent="1">
                    <mxGeometry x="-20" y="480" width="120" height="60" as="geometry"/>
                </mxCell>
                <mxCell id="321" style="edgeStyle=orthogonalEdgeStyle;rounded=0;orthogonalLoop=1;jettySize=auto;html=1;exitX=1;exitY=0.5;exitDx=0;exitDy=0;entryX=0.5;entryY=0;entryDx=0;entryDy=0;" edge="1" parent="1" source="322" target="323">
                    <mxGeometry relative="1" as="geometry"/>
                </mxCell>
                <mxCell id="322" value="Choice 1 -&lt;br&gt;Shizzle" style="rounded=1;whiteSpace=wrap;html=1;" vertex="1" parent="1">
                    <mxGeometry x="-260" y="480" width="120" height="60" as="geometry"/>
                </mxCell>
                <mxCell id="323" value="Chapter 1" style="rounded=1;whiteSpace=wrap;html=1;strokeColor=#F0E9E9;fillColor=#2A2A2A;" vertex="1" parent="1">
                    <mxGeometry x="-140" y="570" width="120" height="60" as="geometry"/>
                </mxCell>
            </root>
        </mxGraphModel>
    </diagram>
</mxfile>